<svg width="20" height="20" viewBox="0 0 20 20" fill="none" xmlns="http://www.w3.org/2000/svg">
<g clip-path="url(#clip0)">
<path d="M10.0008 20.0001C15.5235 20.0001 20.0006 15.5231 20.0006 10.0003C20.0006 4.47756 15.5235 0.000488281 10.0008 0.000488281C4.47805 0.000488281 0.000976562 4.47756 0.000976562 10.0003C0.000976562 15.5231 4.47805 20.0001 10.0008 20.0001Z" fill="#CB2027"/>
<path d="M10.8071 13.3909C10.0512 13.3325 9.7335 12.9576 9.14062 12.5977C8.81477 14.3074 8.41654 15.9463 7.23702 16.8024C6.87249 14.2184 7.77143 12.2776 8.18891 10.2175C7.47731 9.01957 8.27447 6.60848 9.77539 7.2026C11.6227 7.9331 8.17608 11.6567 10.4898 12.1218C12.9054 12.6073 13.8915 7.93042 12.3934 6.40919C10.2291 4.21289 6.09333 6.35927 6.60189 9.50336C6.72578 10.272 7.52009 10.5053 6.91919 11.566C5.53396 11.2592 5.12076 10.1666 5.17388 8.71012C5.25962 6.32594 7.31617 4.65657 9.37895 4.42555C11.9877 4.13357 14.4363 5.3835 14.7742 7.83737C15.1545 10.6069 13.5965 13.6063 10.8071 13.3909Z" fill="#F1F2F2"/>
</g>
<defs>
<clipPath id="clip0">
<rect width="20" height="20" fill="white"/>
</clipPath>
</defs>
</svg>
